<svg xmlns="http://www.w3.org/2000/svg" xmlns:xlink="http://www.w3.org/1999/xlink" width="1000" zoomAndPan="magnify" viewBox="0 0 750 187.499995" height="250" preserveAspectRatio="xMidYMid meet" version="1.0"><defs><g/><clipPath id="51c2f2df10"><path d="M 0.996094 8 L 749 8 L 749 180 L 0.996094 180 Z M 0.996094 8 " clip-rule="nonzero"/></clipPath><clipPath id="070b00bf76"><path d="M 1 0.90625 L 172 0.90625 L 172 171.519531 L 1 171.519531 Z M 1 0.90625 " clip-rule="nonzero"/></clipPath><clipPath id="3c71d5f45d"><path d="M 171.519531 133.003906 C 171.4375 134.734375 170.957031 136.441406 170.078125 137.984375 L 153.933594 165.960938 C 151.988281 169.34375 148.390625 171.421875 144.5 171.421875 L 54.898438 171.421875 C 51.007812 171.421875 47.414062 169.34375 45.46875 165.988281 L 2.492188 91.625 C 1.503906 89.921875 1.027344 88.054688 1.027344 86.164062 C 1.027344 84.273438 1.398438 82.300781 2.542969 80.382812 L 45.492188 6.339844 C 47.4375 2.984375 51.035156 0.90625 54.898438 0.90625 L 144.5 0.90625 C 148.390625 0.90625 151.988281 2.984375 153.933594 6.339844 C 153.933594 6.339844 169.464844 31.785156 170.585938 33.597656 C 171.703125 35.40625 171.519531 37.699219 171.519531 39.5625 C 171.519531 41.164062 171.066406 43.347656 170.640625 45.078125 C 170.210938 46.8125 157.210938 99.511719 157.210938 99.511719 L 128.835938 39.164062 L 70.671875 39.164062 L 43.441406 86.164062 L 70.671875 133.164062 L 128.808594 133.164062 Z M 171.519531 133.003906 " clip-rule="nonzero"/></clipPath><clipPath id="4069216fb5"><path d="M 128 86 L 172 86 L 172 139 L 128 139 Z M 128 86 " clip-rule="nonzero"/></clipPath><clipPath id="8543855044"><path d="M 150.789062 86.136719 L 170.503906 127.941406 C 172.023438 131.164062 171.863281 134.921875 170.078125 138.011719 L 128.835938 133.191406 Z M 150.789062 86.136719 " clip-rule="nonzero"/></clipPath><clipPath id="48278489bc"><rect x="0" width="564" y="0" height="122"/></clipPath><clipPath id="5ec5b785ab"><rect x="0" width="749" y="0" height="172"/></clipPath></defs><g clip-path="url(#51c2f2df10)"><g transform="matrix(1, 0, 0, 1, 0, 8)"><g clip-path="url(#5ec5b785ab)"><g clip-path="url(#070b00bf76)"><g clip-path="url(#3c71d5f45d)"><path fill="#000000" d="M 1.027344 0.90625 L 1.027344 171.421875 L 171.703125 171.421875 L 171.703125 0.90625 Z M 1.027344 0.90625 " fill-opacity="1" fill-rule="nonzero"/></g></g><g clip-path="url(#4069216fb5)"><g clip-path="url(#8543855044)"><path fill="#000000" d="M 128.835938 86.136719 L 128.835938 138.011719 L 172.023438 138.011719 L 172.023438 86.136719 Z M 128.835938 86.136719 " fill-opacity="1" fill-rule="nonzero"/></g></g><g transform="matrix(1, 0, 0, 1, 185, 22)"><g clip-path="url(#48278489bc)"><g fill="#000000" fill-opacity="1"><g transform="translate(0.697339, 92.137901)"><g><path d="M 43.875 -69.796875 L 59.828125 -69.796875 L 59.828125 0 L 43.875 0 L 43.875 -27.71875 L 21.9375 -27.71875 L 21.9375 0 L 5.984375 0 L 5.984375 -69.796875 L 21.9375 -69.796875 L 21.9375 -43.078125 L 43.875 -43.078125 Z M 43.875 -69.796875 "/></g></g></g><g fill="#000000" fill-opacity="1"><g transform="translate(66.502397, 92.137901)"><g><path d="M 18.84375 -18.9375 C 19.769531 -16.351562 21.3125 -14.546875 23.46875 -13.515625 C 25.632812 -12.484375 28.082031 -11.96875 30.8125 -11.96875 C 32.875 -11.96875 34.734375 -12.332031 36.390625 -13.0625 C 38.054688 -13.789062 39.382812 -14.6875 40.375 -15.75 L 52.34375 -8.875 C 47.425781 -2.03125 40.179688 1.390625 30.609375 1.390625 C 24.960938 1.390625 20.0625 0.226562 15.90625 -2.09375 C 11.75 -4.414062 8.554688 -7.570312 6.328125 -11.5625 C 4.097656 -15.550781 2.984375 -20.003906 2.984375 -24.921875 C 2.984375 -29.910156 4.097656 -34.378906 6.328125 -38.328125 C 8.554688 -42.285156 11.664062 -45.425781 15.65625 -47.75 C 19.644531 -50.082031 24.265625 -51.25 29.515625 -51.25 C 34.367188 -51.25 38.703125 -50.101562 42.515625 -47.8125 C 46.335938 -45.519531 49.347656 -42.394531 51.546875 -38.4375 C 53.742188 -34.476562 54.84375 -29.972656 54.84375 -24.921875 C 54.84375 -22.859375 54.640625 -20.863281 54.234375 -18.9375 Z M 18.546875 -30.109375 L 39.984375 -30.109375 C 39.179688 -33.035156 37.78125 -35.078125 35.78125 -36.234375 C 33.789062 -37.398438 31.664062 -37.984375 29.40625 -37.984375 C 23.625 -37.984375 20.003906 -35.359375 18.546875 -30.109375 Z M 18.546875 -30.109375 "/></g></g></g><g fill="#000000" fill-opacity="1"><g transform="translate(124.331066, 92.137901)"><g><path d="M 41.671875 -69.796875 L 56.625 -69.796875 L 56.625 0 L 41.671875 0 L 41.671875 -4.6875 C 40.015625 -2.820312 37.957031 -1.34375 35.5 -0.25 C 33.039062 0.84375 30.144531 1.390625 26.8125 1.390625 C 22.5 1.390625 18.53125 0.226562 14.90625 -2.09375 C 11.28125 -4.414062 8.382812 -7.570312 6.21875 -11.5625 C 4.0625 -15.550781 2.984375 -20.003906 2.984375 -24.921875 C 2.984375 -29.910156 4.0625 -34.378906 6.21875 -38.328125 C 8.382812 -42.285156 11.28125 -45.425781 14.90625 -47.75 C 18.53125 -50.082031 22.5 -51.25 26.8125 -51.25 C 30.144531 -51.25 33.039062 -50.71875 35.5 -49.65625 C 37.957031 -48.59375 40.015625 -47.097656 41.671875 -45.171875 Z M 29.8125 -12.765625 C 33.269531 -12.765625 36.109375 -13.859375 38.328125 -16.046875 C 40.554688 -18.242188 41.671875 -21.203125 41.671875 -24.921875 C 41.671875 -28.648438 40.554688 -31.609375 38.328125 -33.796875 C 36.109375 -35.992188 33.269531 -37.09375 29.8125 -37.09375 C 26.351562 -37.09375 23.507812 -35.992188 21.28125 -33.796875 C 19.0625 -31.609375 17.953125 -28.648438 17.953125 -24.921875 C 17.953125 -21.203125 19.0625 -18.242188 21.28125 -16.046875 C 23.507812 -13.859375 26.351562 -12.765625 29.8125 -12.765625 Z M 29.8125 -12.765625 "/></g></g></g><g fill="#000000" fill-opacity="1"><g transform="translate(186.447039, 92.137901)"><g><path d="M 42.078125 -49.84375 L 56.625 -49.84375 L 56.625 -2.5 C 56.625 1.6875 55.894531 5.289062 54.4375 8.3125 C 52.976562 11.34375 50.984375 13.804688 48.453125 15.703125 C 45.929688 17.597656 43.109375 19.007812 39.984375 19.9375 C 36.859375 20.875 33.632812 21.34375 30.3125 21.34375 C 25.125 21.34375 20.46875 20.34375 16.34375 18.34375 C 12.226562 16.351562 9.007812 13.328125 6.6875 9.265625 L 19.4375 1.890625 C 20.375 3.617188 21.6875 5.097656 23.375 6.328125 C 25.070312 7.554688 27.550781 8.171875 30.8125 8.171875 C 34.332031 8.171875 37.085938 7.273438 39.078125 5.484375 C 41.078125 3.691406 42.078125 1.03125 42.078125 -2.5 L 42.078125 -7.078125 C 40.410156 -5.015625 38.378906 -3.414062 35.984375 -2.28125 C 33.597656 -1.15625 30.773438 -0.59375 27.515625 -0.59375 C 22.796875 -0.59375 18.59375 -1.753906 14.90625 -4.078125 C 11.21875 -6.410156 8.304688 -9.488281 6.171875 -13.3125 C 4.046875 -17.132812 2.984375 -21.335938 2.984375 -25.921875 C 2.984375 -30.503906 4.046875 -34.707031 6.171875 -38.53125 C 8.304688 -42.351562 11.21875 -45.425781 14.90625 -47.75 C 18.59375 -50.082031 22.796875 -51.25 27.515625 -51.25 C 30.773438 -51.25 33.597656 -50.679688 35.984375 -49.546875 C 38.378906 -48.421875 40.410156 -46.828125 42.078125 -44.765625 Z M 30.015625 -14.359375 C 33.535156 -14.359375 36.425781 -15.421875 38.6875 -17.546875 C 40.945312 -19.671875 42.078125 -22.460938 42.078125 -25.921875 C 42.078125 -29.378906 40.945312 -32.171875 38.6875 -34.296875 C 36.425781 -36.421875 33.535156 -37.484375 30.015625 -37.484375 C 26.484375 -37.484375 23.585938 -36.421875 21.328125 -34.296875 C 19.078125 -32.171875 17.953125 -29.378906 17.953125 -25.921875 C 17.953125 -22.460938 19.078125 -19.671875 21.328125 -17.546875 C 23.585938 -15.421875 26.484375 -14.359375 30.015625 -14.359375 Z M 30.015625 -14.359375 "/></g></g></g><g fill="#000000" fill-opacity="1"><g transform="translate(248.563012, 92.137901)"><g><path d="M 18.84375 -18.9375 C 19.769531 -16.351562 21.3125 -14.546875 23.46875 -13.515625 C 25.632812 -12.484375 28.082031 -11.96875 30.8125 -11.96875 C 32.875 -11.96875 34.734375 -12.332031 36.390625 -13.0625 C 38.054688 -13.789062 39.382812 -14.6875 40.375 -15.75 L 52.34375 -8.875 C 47.425781 -2.03125 40.179688 1.390625 30.609375 1.390625 C 24.960938 1.390625 20.0625 0.226562 15.90625 -2.09375 C 11.75 -4.414062 8.554688 -7.570312 6.328125 -11.5625 C 4.097656 -15.550781 2.984375 -20.003906 2.984375 -24.921875 C 2.984375 -29.910156 4.097656 -34.378906 6.328125 -38.328125 C 8.554688 -42.285156 11.664062 -45.425781 15.65625 -47.75 C 19.644531 -50.082031 24.265625 -51.25 29.515625 -51.25 C 34.367188 -51.25 38.703125 -50.101562 42.515625 -47.8125 C 46.335938 -45.519531 49.347656 -42.394531 51.546875 -38.4375 C 53.742188 -34.476562 54.84375 -29.972656 54.84375 -24.921875 C 54.84375 -22.859375 54.640625 -20.863281 54.234375 -18.9375 Z M 18.546875 -30.109375 L 39.984375 -30.109375 C 39.179688 -33.035156 37.78125 -35.078125 35.78125 -36.234375 C 33.789062 -37.398438 31.664062 -37.984375 29.40625 -37.984375 C 23.625 -37.984375 20.003906 -35.359375 18.546875 -30.109375 Z M 18.546875 -30.109375 "/></g></g></g><g fill="#000000" fill-opacity="1"><g transform="translate(306.391682, 92.137901)"><g><path d="M 48.359375 -54.4375 L 21.9375 -54.4375 L 21.9375 -40.984375 L 47.859375 -40.984375 L 47.859375 -25.625 L 21.9375 -25.625 L 21.9375 0 L 5.984375 0 L 5.984375 -69.796875 L 48.359375 -69.796875 Z M 48.359375 -54.4375 "/></g></g></g><g fill="#000000" fill-opacity="1"><g transform="translate(358.238108, 92.137901)"><g><path d="M 5.484375 0 L 5.484375 -72.78125 L 20.4375 -72.78125 L 20.4375 0 Z M 5.484375 0 "/></g></g></g><g fill="#000000" fill-opacity="1"><g transform="translate(384.161289, 92.137901)"><g><path d="M 29.40625 1.390625 C 24.5625 1.390625 20.125 0.226562 16.09375 -2.09375 C 12.070312 -4.414062 8.878906 -7.570312 6.515625 -11.5625 C 4.160156 -15.550781 2.984375 -20.003906 2.984375 -24.921875 C 2.984375 -29.910156 4.160156 -34.378906 6.515625 -38.328125 C 8.878906 -42.285156 12.070312 -45.425781 16.09375 -47.75 C 20.125 -50.082031 24.5625 -51.25 29.40625 -51.25 C 34.332031 -51.25 38.785156 -50.082031 42.765625 -47.75 C 46.753906 -45.425781 49.925781 -42.285156 52.28125 -38.328125 C 54.644531 -34.378906 55.828125 -29.910156 55.828125 -24.921875 C 55.828125 -20.003906 54.644531 -15.550781 52.28125 -11.5625 C 49.925781 -7.570312 46.753906 -4.414062 42.765625 -2.09375 C 38.785156 0.226562 34.332031 1.390625 29.40625 1.390625 Z M 29.40625 -13.15625 C 32.664062 -13.15625 35.390625 -14.234375 37.578125 -16.390625 C 39.773438 -18.554688 40.875 -21.398438 40.875 -24.921875 C 40.875 -28.441406 39.773438 -31.28125 37.578125 -33.4375 C 35.390625 -35.601562 32.664062 -36.6875 29.40625 -36.6875 C 26.15625 -36.6875 23.429688 -35.601562 21.234375 -33.4375 C 19.046875 -31.28125 17.953125 -28.441406 17.953125 -24.921875 C 17.953125 -21.398438 19.046875 -18.554688 21.234375 -16.390625 C 23.429688 -14.234375 26.15625 -13.15625 29.40625 -13.15625 Z M 29.40625 -13.15625 "/></g></g></g><g fill="#000000" fill-opacity="1"><g transform="translate(442.987031, 92.137901)"><g><path d="M 60.328125 -49.84375 L 76.265625 -49.84375 L 60.328125 0 L 46.359375 0 L 38.390625 -26.625 L 30.40625 0 L 16.453125 0 L 0.5 -49.84375 L 16.453125 -49.84375 L 23.625 -23.125 L 31.40625 -49.84375 L 45.359375 -49.84375 L 53.140625 -23.125 Z M 60.328125 -49.84375 "/></g></g></g><g fill="#000000" fill-opacity="1"><g transform="translate(519.75963, 92.137901)"><g><path d="M 19.640625 -35.296875 C 19.640625 -34.367188 20.238281 -33.632812 21.4375 -33.09375 C 22.632812 -32.5625 24.160156 -32.0625 26.015625 -31.59375 C 27.878906 -31.132812 29.84375 -30.570312 31.90625 -29.90625 C 33.96875 -29.238281 35.925781 -28.320312 37.78125 -27.15625 C 39.644531 -26 41.175781 -24.441406 42.375 -22.484375 C 43.570312 -20.523438 44.171875 -18.015625 44.171875 -14.953125 C 44.171875 -11.160156 43.1875 -8.050781 41.21875 -5.625 C 39.257812 -3.207031 36.703125 -1.429688 33.546875 -0.296875 C 30.390625 0.828125 27.019531 1.390625 23.4375 1.390625 C 18.445312 1.390625 14.109375 0.425781 10.421875 -1.5 C 6.734375 -3.425781 3.925781 -6.414062 2 -10.46875 L 14.953125 -17.84375 C 16.285156 -13.925781 19.113281 -11.96875 23.4375 -11.96875 C 27.019531 -11.96875 28.8125 -13 28.8125 -15.0625 C 28.8125 -15.988281 28.210938 -16.71875 27.015625 -17.25 C 25.816406 -17.78125 24.285156 -18.296875 22.421875 -18.796875 C 20.566406 -19.296875 18.609375 -19.875 16.546875 -20.53125 C 14.484375 -21.195312 12.519531 -22.113281 10.65625 -23.28125 C 8.800781 -24.445312 7.273438 -25.957031 6.078125 -27.8125 C 4.878906 -29.675781 4.28125 -32.035156 4.28125 -34.890625 C 4.28125 -38.546875 5.191406 -41.570312 7.015625 -43.96875 C 8.847656 -46.363281 11.242188 -48.175781 14.203125 -49.40625 C 17.160156 -50.632812 20.367188 -51.25 23.828125 -51.25 C 27.878906 -51.25 31.617188 -50.347656 35.046875 -48.546875 C 38.472656 -46.753906 41.210938 -44.097656 43.265625 -40.578125 L 30.515625 -33.703125 C 29.847656 -35.023438 28.984375 -36.085938 27.921875 -36.890625 C 26.859375 -37.691406 25.492188 -38.09375 23.828125 -38.09375 C 21.035156 -38.09375 19.640625 -37.160156 19.640625 -35.296875 Z M 19.640625 -35.296875 "/></g></g></g></g></g></g></g></g></svg>